<svg viewBox="0 0 199 43" fill="none" xmlns="http://www.w3.org/2000/svg" class="sm:w-[170px] w-[150px]"><path d="M63.5638 16.6266C60.1686 16.6266 57.6387 14.6738 57.4834 11.9443L60.2795 11.3007C60.3683 13.0538 61.6998 14.3409 63.6748 14.3409C65.1616 14.3409 66.4043 13.5864 66.4043 12.3881C66.4043 9.23691 58.1048 10.058 58.1048 5.50875C58.1048 3.20084 60.2351 1.66964 63.1644 1.66964C66.1159 1.66964 68.335 3.26742 68.6013 5.57533L65.8939 6.26326C65.7386 4.90958 64.6068 3.88878 63.0312 3.88878C61.7663 3.88878 60.7011 4.57671 60.7011 5.59752C60.7011 8.43802 69.0673 7.59474 69.0673 12.4103C69.0673 14.8957 66.826 16.6266 63.5638 16.6266ZM71.043 16.3604V1.27019H73.3731V6.86243C73.9945 5.73067 75.3038 4.99835 76.8128 4.99835C79.2761 4.99835 81.0292 6.929 81.0292 9.56978V16.3604H78.6991V9.94703C78.6991 8.39363 77.6561 7.28406 76.1914 7.28406C74.5715 7.28406 73.3731 8.54897 73.3731 10.3243V16.3604H71.043ZM88.3222 16.6266C85.06 16.6266 82.7743 14.2078 82.7743 10.8125C82.7743 7.41721 85.0157 4.99835 88.1668 4.99835C91.6953 4.99835 93.7369 8.01638 93.4262 11.5448H85.2598C85.5482 13.2314 86.7466 14.3631 88.3444 14.3631C89.6093 14.3631 90.6301 13.653 90.8964 12.61L93.2709 13.4533C92.6939 15.3395 90.7188 16.6266 88.3222 16.6266ZM85.2819 9.81389H90.9851C90.7632 8.26049 89.6093 7.21749 88.1668 7.21749C86.7022 7.21749 85.5926 8.26049 85.2819 9.81389ZM95.3794 16.3604V5.26465H97.2657L97.5985 6.88462C98.1311 5.35341 99.9064 4.62109 101.66 5.22026L101.438 7.86104C99.7067 7.01777 97.7095 7.7057 97.7095 9.99142V16.3604H95.3794ZM103.559 18.8014C104.536 18.7348 105.357 18.2022 105.756 17.2702L106.267 16.0053L101.895 5.26465H104.558L107.421 13.2979L110.039 5.26465H112.658L107.864 17.9581C107.177 19.7778 105.956 20.9318 104.447 21.0649L103.559 18.8014ZM113.952 5.26465H116.282V16.3604H113.952V5.26465ZM115.128 3.99974C114.218 3.99974 113.574 3.3118 113.574 2.37976C113.574 1.44772 114.218 0.781981 115.128 0.781981C116.038 0.781981 116.681 1.44772 116.681 2.37976C116.681 3.3118 116.038 3.99974 115.128 3.99974ZM121.868 16.6266C119.693 16.6266 118.229 15.3174 118.229 13.3867C118.229 11.8999 119.383 10.6572 121.136 10.3243L124.642 9.63635C124.975 9.59197 125.197 9.34787 125.197 9.05938C125.197 7.92762 124.376 7.10653 123.222 7.10653C122.023 7.10653 121.091 7.94981 121.002 9.21472L118.606 8.63774C118.961 6.50736 120.825 4.99835 123.111 4.99835C125.685 4.99835 127.527 6.72928 127.527 9.12595V14.1412L127.571 16.3604H125.729L125.33 14.8513C124.642 15.9387 123.377 16.6266 121.868 16.6266ZM120.736 13.076C120.736 13.8749 121.38 14.4075 122.445 14.4075C123.998 14.4075 125.197 13.2757 125.197 11.6114V11.101C124.975 11.1454 124.731 11.2119 124.487 11.2563L122.068 11.7002C121.247 11.8555 120.736 12.3881 120.736 13.076ZM129.88 16.3604V5.26465H131.744L132.099 7.08434C132.698 5.84162 134.096 4.99835 135.694 4.99835C138.135 4.99835 139.866 6.929 139.866 9.56978V16.3604H137.536V9.94703C137.536 8.39363 136.515 7.28406 135.029 7.28406C133.409 7.28406 132.21 8.54897 132.21 10.3243V16.3604H129.88ZM146.123 16.6266C143.393 16.6266 141.352 15.1398 141.174 13.076L143.837 12.4547C143.904 13.653 144.925 14.5407 146.278 14.5407C147.321 14.5407 148.098 13.9859 148.098 13.187C148.098 10.9013 141.707 11.7667 141.707 8.10515C141.707 6.26326 143.416 4.99835 145.835 4.99835C148.32 4.99835 150.117 6.28545 150.295 8.08296L147.765 8.65993C147.743 7.68351 146.922 7.01777 145.768 7.01777C144.792 7.01777 144.126 7.50598 144.126 8.2161C144.126 10.4352 150.606 9.5254 150.606 13.2757C150.606 15.2286 148.742 16.6266 146.123 16.6266Z" fill="white"></path><path d="M64.5625 38.1618C60.4792 38.1618 57.5722 35.0328 57.5722 30.6833C57.5722 26.3338 60.457 23.2048 64.4737 23.2048C67.7358 23.2048 70.2878 25.3574 70.7095 28.2422L68.2462 28.9968C67.9134 26.9551 66.3822 25.5571 64.4959 25.5571C62.0104 25.5571 60.2129 27.7097 60.2129 30.6833C60.2129 33.6348 62.0104 35.7429 64.5625 35.7429C66.6041 35.7429 68.1353 34.3227 68.3794 32.2367L70.887 33.1909C70.31 36.1424 67.8024 38.1618 64.5625 38.1618ZM77.7904 38.1618C74.5283 38.1618 72.2204 35.7429 72.2204 32.3477C72.2204 28.9524 74.5283 26.5335 77.7904 26.5335C81.0526 26.5335 83.3827 28.9524 83.3827 32.3477C83.3827 35.7429 81.0526 38.1618 77.7904 38.1618ZM77.7904 35.8761C79.6323 35.8761 80.9638 34.4115 80.9638 32.3477C80.9638 30.2395 79.6323 28.7526 77.7904 28.7526C75.9486 28.7526 74.6393 30.2395 74.6393 32.3477C74.6393 34.4115 75.9486 35.8761 77.7904 35.8761ZM89.741 38.1618C86.7896 38.1618 84.6814 35.7429 84.6814 32.3477C84.6814 28.9302 86.7674 26.5335 89.7188 26.5335C91.2279 26.5335 92.5372 27.1992 93.4248 28.331V22.8053H95.7549V35.6764L95.7993 37.8955H93.8908L93.5358 36.2312C92.6481 37.4295 91.3166 38.1618 89.741 38.1618ZM90.2736 35.8761C92.1155 35.8761 93.447 34.3893 93.447 32.3477C93.447 30.2617 92.1155 28.7748 90.2736 28.7748C88.4317 28.7748 87.1003 30.2617 87.1003 32.3477C87.1003 34.3893 88.4317 35.8761 90.2736 35.8761ZM98.305 26.7998H100.635V37.8955H98.305V26.7998ZM99.4812 25.5349C98.5713 25.5349 97.9278 24.847 97.9278 23.9149C97.9278 22.9829 98.5713 22.3171 99.4812 22.3171C100.391 22.3171 101.035 22.9829 101.035 23.9149C101.035 24.847 100.391 25.5349 99.4812 25.5349ZM103.181 37.8955V26.7998H105.045L105.4 28.6195C105.999 27.3768 107.397 26.5335 108.995 26.5335C111.436 26.5335 113.167 28.4642 113.167 31.1049V37.8955H110.837V31.4822C110.837 29.9288 109.816 28.8192 108.329 28.8192C106.709 28.8192 105.511 30.0841 105.511 31.8594V37.8955H103.181ZM120.527 42.6001C117.798 42.6001 115.623 41.0023 115.246 38.7166L117.753 38.0508C117.975 39.4267 119.151 40.3588 120.683 40.3588C122.414 40.3588 123.634 39.1382 123.634 37.4517V35.6986V35.632C122.769 36.7637 121.437 37.4295 119.884 37.4295C116.977 37.4295 114.891 35.166 114.891 31.9926C114.891 28.797 116.954 26.5335 119.884 26.5335C121.504 26.5335 122.857 27.2436 123.745 28.442L124.056 26.7998H125.92V37.1632C125.92 40.3366 123.701 42.6001 120.527 42.6001ZM120.483 35.632C122.325 35.632 123.634 34.2117 123.634 32.2145C123.634 30.2173 122.325 28.797 120.483 28.797C118.641 28.797 117.332 30.2173 117.332 32.2145C117.332 34.2117 118.641 35.632 120.483 35.632ZM138.633 38.1618C135.238 38.1618 132.708 36.209 132.553 33.4794L135.349 32.8359C135.438 34.589 136.769 35.8761 138.744 35.8761C140.231 35.8761 141.474 35.1216 141.474 33.9232C141.474 30.7721 133.174 31.5931 133.174 27.0439C133.174 24.736 135.305 23.2048 138.234 23.2048C141.185 23.2048 143.404 24.8026 143.671 27.1105L140.963 27.7984C140.808 26.4447 139.676 25.4239 138.101 25.4239C136.836 25.4239 135.771 26.1119 135.771 27.1327C135.771 29.9732 144.137 29.1299 144.137 33.9454C144.137 36.4309 141.895 38.1618 138.633 38.1618ZM150.95 38.1618C147.755 38.1618 145.491 35.7429 145.491 32.3698C145.491 28.9524 147.732 26.5335 150.906 26.5335C153.48 26.5335 155.544 28.1757 155.877 30.4836L153.569 31.1937C153.347 29.7513 152.259 28.7526 150.884 28.7526C149.153 28.7526 147.954 30.2617 147.954 32.3255C147.954 34.4115 149.197 35.8761 150.95 35.8761C152.393 35.8761 153.502 34.8775 153.657 33.3241L156.054 34.0786C155.655 36.5418 153.547 38.1618 150.95 38.1618ZM157.923 37.8955V22.8053H160.253V28.3976C160.875 27.2658 162.184 26.5335 163.693 26.5335C166.156 26.5335 167.909 28.4642 167.909 31.1049V37.8955H165.579V31.4822C165.579 29.9288 164.536 28.8192 163.072 28.8192C161.452 28.8192 160.253 30.0841 160.253 31.8594V37.8955H157.923ZM175.225 38.1618C171.962 38.1618 169.655 35.7429 169.655 32.3477C169.655 28.9524 171.962 26.5335 175.225 26.5335C178.487 26.5335 180.817 28.9524 180.817 32.3477C180.817 35.7429 178.487 38.1618 175.225 38.1618ZM175.225 35.8761C177.066 35.8761 178.398 34.4115 178.398 32.3477C178.398 30.2395 177.066 28.7526 175.225 28.7526C173.383 28.7526 172.073 30.2395 172.073 32.3477C172.073 34.4115 173.383 35.8761 175.225 35.8761ZM187.686 38.1618C184.423 38.1618 182.116 35.7429 182.116 32.3477C182.116 28.9524 184.423 26.5335 187.686 26.5335C190.948 26.5335 193.278 28.9524 193.278 32.3477C193.278 35.7429 190.948 38.1618 187.686 38.1618ZM187.686 35.8761C189.527 35.8761 190.859 34.4115 190.859 32.3477C190.859 30.2395 189.527 28.7526 187.686 28.7526C185.844 28.7526 184.534 30.2395 184.534 32.3477C184.534 34.4115 185.844 35.8761 187.686 35.8761ZM195.198 37.8955V22.8053H197.528V37.8955H195.198Z" fill="white"></path><line x1="43.7473" y1="2.35938" x2="43.7473" y2="38.3289" stroke="white" stroke-width="1.26808"></line><path d="M10.5438 2.52439C10.5438 3.04146 10.4314 3.08643 9.03754 3.22132C5.62036 3.55854 4.87847 3.76087 3.41718 4.86246C2.1807 5.7842 1.97837 6.05398 1.64115 7.15557C1.43881 7.83001 0.989184 9.29131 0.629481 10.3929L0 12.3713L1.30392 14.8667C2.02333 16.2381 2.76522 17.4521 2.92259 17.542C3.10244 17.6319 4.22651 18.0591 5.41803 18.5312L7.59873 19.363L10.1391 18.6436C11.533 18.2389 13.2191 17.8118 13.8935 17.6994C15.4672 17.4521 15.6696 17.1373 14.7703 16.2156C14.4106 15.8334 13.9835 15.2714 13.8261 15.0016C13.6912 14.7318 13.1067 14.1698 12.5222 13.7651C11.5105 13.0457 10.6337 12.8209 8.61039 12.7984C7.91347 12.7759 7.48632 12.5961 6.74443 11.9666C6.22736 11.517 5.86766 11.0898 5.9351 11.0224C6.00255 10.9325 6.45218 10.91 6.92429 10.9549C7.41888 10.9774 8.0034 10.8875 8.27317 10.7301C8.63288 10.4828 9.03754 10.4828 10.319 10.7076C11.7128 10.9549 11.9601 10.9325 12.2749 10.6177C12.702 10.213 12.5896 10.1006 14.4556 12.8883C15.9169 15.114 16.7037 16.283 17.9402 18.0816C18.2999 18.5761 18.9069 19.1607 19.334 19.3405C19.986 19.6553 20.1659 19.6777 20.8178 19.408C21.3349 19.1831 21.7396 19.1607 22.2791 19.318C23.673 19.7227 24.7746 19.6103 26.5731 18.8234C27.9894 18.2164 28.3041 17.9916 28.3041 17.587C28.3041 17.1373 28.0568 16.89 26.618 15.7435C26.2134 15.4063 23.0435 12.686 22.5264 12.2139C22.1667 11.8992 22.0543 11.6069 22.1442 11.2472C22.3016 10.7301 22.5714 10.5952 22.7962 10.9774C22.9985 11.2922 23.8528 11.2472 24.7521 10.8875C25.3591 10.6177 25.6289 10.6177 26.056 10.82C26.663 11.1348 26.6405 10.9774 26.1684 12.6186C25.7188 14.1698 25.7862 14.4396 26.708 14.7543C27.3599 14.9791 27.4049 14.9566 27.832 14.0574C28.7763 12.034 28.9111 11.517 28.8212 10.7076C28.7088 9.83086 28.4615 9.5386 26.5506 7.76257C25.8986 7.17805 25.3816 6.6385 25.3816 6.57105C25.3816 6.52609 25.6513 6.05398 25.9661 5.55939C26.2808 5.04231 26.4831 4.59268 26.4157 4.50276C26.3033 4.39035 23.6055 4.77254 22.6388 5.04231C22.369 5.13224 22.1892 4.90742 21.9644 4.18802C21.6721 3.33372 21.5597 3.22132 20.9752 3.2438C20.6155 3.26628 19.9635 3.28876 19.5364 3.31124C18.8844 3.33372 18.6146 3.51357 17.9852 4.36787C17.0634 5.58187 16.7936 5.55939 14.7928 4.2105C14.0734 3.73839 13.3989 3.33372 13.309 3.33372C13.2191 3.33372 12.7245 3.01898 12.2524 2.65928C11.1508 1.82747 10.5438 1.7825 10.5438 2.52439Z" fill="white"></path><path d="M27.6073 20.2386C25.4041 22.8239 25.2692 23.0712 25.3366 24.4201C25.4041 25.4093 25.5165 25.724 26.0111 26.1737C26.3483 26.4659 26.708 26.7132 26.7979 26.7132C26.8879 26.7132 27.2701 26.938 27.6522 27.2078C28.3492 27.7249 28.3492 27.7249 28.6864 27.2753C29.5407 26.1512 29.6531 25.5217 29.4283 22.8689C29.3159 21.4526 29.2035 20.0362 29.2035 19.6765C29.2035 18.7548 28.7313 18.9346 27.6073 20.2386Z" fill="white"></path><path d="M16.0039 20.8453C15.8915 20.9127 15.4644 21.4298 15.0372 21.9918C14.6101 22.5539 14.2054 23.0485 14.1379 23.1159C14.0705 23.1834 13.7558 23.6105 13.3961 24.0601C12.9015 24.7346 12.7891 25.1168 12.7891 26.1284C12.7891 27.32 12.8565 27.4548 13.9581 28.6688C15.869 30.8271 15.8241 30.7821 16.5435 30.4674C16.8807 30.31 17.735 29.8379 18.4094 29.4107C19.0839 28.9836 19.9157 28.4665 20.2304 28.2867C22.9956 26.713 23.0631 26.6455 23.4677 25.409L23.8499 24.195L22.9507 23.1609C22.1863 22.2391 21.8716 22.0593 20.6351 21.7446C17.7799 21.0251 16.1838 20.7104 16.0039 20.8453Z" fill="white"></path><path d="M22.7971 28.737C21.9428 29.344 20.8637 30.0409 20.4365 30.2882C20.0094 30.5355 19.3574 31.0076 18.9752 31.3223L18.3008 31.8844L18.8179 33.3232C19.0876 34.1325 19.3124 34.9868 19.3124 35.2341C19.3124 35.6388 19.4473 35.6837 20.7288 35.6837C21.5156 35.6837 22.7521 35.8861 23.5839 36.1558L25.0452 36.6055L26.7988 34.807C28.7547 32.7836 28.6872 33.1208 27.9228 30.1308C27.698 29.254 27.4058 28.647 27.2034 28.5796C27.0011 28.5121 26.4391 28.2649 25.922 28.04C25.4274 27.7927 24.8654 27.6129 24.6855 27.6354C24.5057 27.6354 23.6738 28.13 22.7971 28.737Z" fill="white"></path></svg>